<?xml version="1.0" encoding="iso-8859-1"?>
<!-- Generator: Adobe Illustrator 19.0.0, SVG Export Plug-In . SVG Version: 6.00 Build 0)  -->
<svg version="1.1" id="Layer_1" xmlns="http://www.w3.org/2000/svg" xmlns:xlink="http://www.w3.org/1999/xlink" x="0px" y="0px"
	 viewBox="0 0 469.333 469.333" style="enable-background:new 0 0 469.333 469.333;" xml:space="preserve">
<path style="fill:#FFFFFF;" d="M437.333,448H32c-11.787,0-21.333-9.547-21.333-21.333V128h448v298.667
	C458.667,438.453,449.12,448,437.333,448z"/>
<path style="fill:#D94452;" d="M458.667,128h-448V64c0-11.787,9.547-21.333,21.333-21.333h405.333
	c11.787,0,21.333,9.547,21.333,21.333V128z"/>
<path d="M437.333,32h-32V21.333c0-5.888-4.768-10.667-10.667-10.667S384,15.445,384,21.333V32h-42.667V21.333
	c0-5.888-4.768-10.667-10.667-10.667S320,15.445,320,21.333V32h-42.667V21.333c0-5.888-4.768-10.667-10.667-10.667
	c-5.899,0-10.667,4.779-10.667,10.667V32h-42.667V21.333c0-5.888-4.768-10.667-10.667-10.667S192,15.445,192,21.333V32h-42.667
	V21.333c0-5.888-4.768-10.667-10.667-10.667S128,15.445,128,21.333V32H85.333V21.333c0-5.888-4.768-10.667-10.667-10.667
	C68.768,10.667,64,15.445,64,21.333V32H32C14.357,32,0,46.357,0,64v64v298.667c0,17.643,14.357,32,32,32h405.333
	c17.643,0,32-14.357,32-32V128V64C469.333,46.357,454.976,32,437.333,32z M21.333,64c0-5.877,4.779-10.667,10.667-10.667h405.333
	C443.221,53.333,448,58.123,448,64v53.333H21.333V64z M448,426.667c0,5.877-4.779,10.667-10.667,10.667H32
	c-5.888,0-10.667-4.789-10.667-10.667v-288H448V426.667z"/>
<g>
	<circle style="fill:#D1D3D4;" cx="85.333" cy="202.667" r="21.333"/>
	<circle style="fill:#D1D3D4;" cx="160" cy="202.667" r="21.333"/>
	<circle style="fill:#D1D3D4;" cx="234.667" cy="202.667" r="21.333"/>
	<circle style="fill:#D1D3D4;" cx="309.333" cy="202.667" r="21.333"/>
	<circle style="fill:#D1D3D4;" cx="384" cy="202.667" r="21.333"/>
	<circle style="fill:#D1D3D4;" cx="85.333" cy="288" r="21.333"/>
	<circle style="fill:#D1D3D4;" cx="160" cy="288" r="21.333"/>
	<circle style="fill:#D1D3D4;" cx="234.667" cy="288" r="21.333"/>
	<circle style="fill:#D1D3D4;" cx="85.333" cy="373.333" r="21.333"/>
	<circle style="fill:#D1D3D4;" cx="160" cy="373.333" r="21.333"/>
	<circle style="fill:#D1D3D4;" cx="234.667" cy="373.333" r="21.333"/>
</g>
<circle style="fill:#D94452;" cx="341.333" cy="330.667" r="64"/>
<path d="M341.333,405.333c-41.163,0-74.667-33.493-74.667-74.667S300.171,256,341.333,256S416,289.493,416,330.667
	S382.496,405.333,341.333,405.333z M341.333,277.333c-29.408,0-53.333,23.925-53.333,53.333C288,360.075,311.925,384,341.333,384
	s53.333-23.925,53.333-53.333C394.667,301.259,370.741,277.333,341.333,277.333z"/>
<path style="fill:#FFFFFF;" d="M366.933,317.867h-12.8v-12.8c0-7.072-5.728-12.8-12.8-12.8s-12.8,5.728-12.8,12.8v12.8h-12.8
	c-7.072,0-12.8,5.728-12.8,12.8s5.728,12.8,12.8,12.8h12.8v12.8c0,7.072,5.728,12.8,12.8,12.8s12.8-5.728,12.8-12.8v-12.8h12.8
	c7.072,0,12.8-5.728,12.8-12.8S374.005,317.867,366.933,317.867z"/>
<g>
</g>
<g>
</g>
<g>
</g>
<g>
</g>
<g>
</g>
<g>
</g>
<g>
</g>
<g>
</g>
<g>
</g>
<g>
</g>
<g>
</g>
<g>
</g>
<g>
</g>
<g>
</g>
<g>
</g>
</svg>
