<?xml version="1.0" encoding="iso-8859-1"?>
<!-- Generator: Adobe Illustrator 19.0.0, SVG Export Plug-In . SVG Version: 6.00 Build 0)  -->
<svg version="1.1" id="Layer_1" xmlns="http://www.w3.org/2000/svg" xmlns:xlink="http://www.w3.org/1999/xlink" x="0px" y="0px"
	 viewBox="0 0 469.333 469.333" style="enable-background:new 0 0 469.333 469.333;" xml:space="preserve">
<g>
	<path style="fill:#FFFFFF;" d="M394.667,170.667c0,88.363-97.781,277.333-160,277.333s-160-188.971-160-277.333s71.637-160,160-160
		S394.667,82.304,394.667,170.667z"/>
	<circle style="fill:#FFFFFF;" cx="234.667" cy="352" r="32"/>
</g>
<circle style="fill:#D94452;" cx="234.667" cy="170.667" r="85.333"/>
<path d="M234.667,394.667C211.136,394.667,192,375.531,192,352c0-23.531,19.136-42.667,42.667-42.667s42.667,19.136,42.667,42.667
	C277.333,375.531,258.197,394.667,234.667,394.667z M234.667,330.667c-11.765,0-21.333,9.568-21.333,21.333
	c0,11.765,9.568,21.333,21.333,21.333S256,363.765,256,352C256,340.235,246.432,330.667,234.667,330.667z"/>
<path d="M458.667,448H384c-5.888,0-10.667,4.779-10.667,10.667c0,5.888,4.779,10.667,10.667,10.667h74.667
	c5.888,0,10.667-4.779,10.667-10.667C469.333,452.779,464.555,448,458.667,448z"/>
<path d="M341.333,448H265.44c66.155-42.379,139.893-201.408,139.893-277.333C405.333,76.565,328.768,0,234.667,0
	S64,76.565,64,170.667C64,246.592,137.739,405.621,203.893,448H10.667C4.779,448,0,452.779,0,458.667
	c0,5.888,4.779,10.667,10.667,10.667h330.667c5.888,0,10.667-4.779,10.667-10.667C352,452.779,347.221,448,341.333,448z
	 M85.333,170.667c0-82.347,66.987-149.333,149.333-149.333S384,88.32,384,170.667c0,89.717-99.093,266.667-149.333,266.667
	S85.333,260.384,85.333,170.667z"/>
<path d="M234.667,266.667c-52.928,0-96-43.072-96-96s43.072-96,96-96s96,43.072,96,96S287.595,266.667,234.667,266.667z M234.667,96
	C193.493,96,160,129.493,160,170.667s33.493,74.667,74.667,74.667s74.667-33.493,74.667-74.667S275.84,96,234.667,96z"/>
<path style="fill:#FFFFFF;" d="M266.667,154.667h-16v-16c0-8.843-7.157-16-16-16s-16,7.157-16,16v16h-16c-8.843,0-16,7.157-16,16
	s7.157,16,16,16h16v16c0,8.843,7.157,16,16,16s16-7.157,16-16v-16h16c8.843,0,16-7.157,16-16S275.509,154.667,266.667,154.667z"/>
<g>
</g>
<g>
</g>
<g>
</g>
<g>
</g>
<g>
</g>
<g>
</g>
<g>
</g>
<g>
</g>
<g>
</g>
<g>
</g>
<g>
</g>
<g>
</g>
<g>
</g>
<g>
</g>
<g>
</g>
</svg>
