<?xml version="1.0" encoding="iso-8859-1"?>
<!-- Generator: Adobe Illustrator 19.0.0, SVG Export Plug-In . SVG Version: 6.00 Build 0)  -->
<svg version="1.1" id="Layer_1" xmlns="http://www.w3.org/2000/svg" xmlns:xlink="http://www.w3.org/1999/xlink" x="0px" y="0px"
	 viewBox="0 0 470.703 470.703" style="enable-background:new 0 0 470.703 470.703;" xml:space="preserve">
<path style="fill:#D94452;" d="M459.189,222.786c-7.68-65.088-66.667-111.616-131.755-103.936s-111.616,66.677-103.936,131.755
	c1.803,15.264,6.517,29.451,13.376,42.219l-23.541,59.861h103.328c12.373,2.635,25.344,3.424,38.603,1.856
	C420.341,346.861,466.869,287.874,459.189,222.786z"/>
<path d="M341.643,366.008c-8.683,0-17.419-0.885-26.091-2.656H213.333c-3.531,0-6.837-1.749-8.811-4.661
	c-1.995-2.912-2.411-6.624-1.109-9.909l21.781-55.371c-6.443-13.163-10.571-27.115-12.277-41.547
	c-4.053-34.304,5.504-68.139,26.891-95.264c21.397-27.115,52.075-44.288,86.389-48.341c34.293-4.043,68.128,5.504,95.264,26.901
	c27.125,21.397,44.277,52.075,48.331,86.379s-5.504,68.139-26.891,95.264c-21.397,27.115-52.075,44.288-86.389,48.341
	C351.573,365.72,346.613,366.008,341.643,366.008z M228.992,342.018h87.669c0.747,0,1.493,0.075,2.219,0.235
	c11.733,2.496,23.552,3.061,35.125,1.696c28.661-3.381,54.272-17.717,72.139-40.363c17.867-22.656,25.845-50.901,22.453-79.552l0,0
	c-3.371-28.651-17.707-54.261-40.363-72.128c-22.645-17.867-50.923-25.835-79.541-22.464c-28.661,3.381-54.272,17.717-72.139,40.363
	c-17.867,22.656-25.845,50.901-22.453,79.552c1.579,13.408,5.675,26.325,12.181,38.411c1.483,2.763,1.675,6.037,0.533,8.96
	L228.992,342.018z"/>
<path style="fill:#FFFFFF;" d="M388.811,212.962h-23.733v-23.733c0-13.109-10.624-23.733-23.733-23.733l0,0
	c-13.109,0-23.733,10.624-23.733,23.733v23.733h-23.733c-13.109,0-23.733,10.624-23.733,23.733l0,0
	c0,13.109,10.624,23.733,23.733,23.733h23.733v23.733c0,13.109,10.624,23.733,23.733,23.733l0,0
	c13.109,0,23.733-10.624,23.733-23.733v-23.733h23.733c13.109,0,23.733-10.624,23.733-23.733l0,0
	C412.544,223.586,401.92,212.962,388.811,212.962z"/>
<path style="fill:#F5B945;" d="M94.187,438.018l-25.376-12.96c-35.68-18.229-58.144-54.923-58.144-94.987V140.642
	c0-40.075,22.453-76.757,58.144-94.987l25.376-12.971h55.147c11.787,0,21.333,9.547,21.333,21.333v64
	c0,11.787-9.547,21.333-21.333,21.333h-10.667c-23.563,0-42.667,19.104-42.667,42.667v106.667c0,23.563,19.104,42.667,42.667,42.667
	h10.667c11.787,0,21.333,9.547,21.333,21.333v64c0,11.787-9.547,21.333-21.333,21.333H94.187z"/>
<path d="M149.333,448.685H94.187c-1.685,0-3.349-0.405-4.853-1.163l-25.376-12.96C24.512,414.413,0,374.37,0,330.072V140.642
	C0,96.344,24.512,56.301,63.957,36.152l25.376-12.96c1.504-0.768,3.168-1.173,4.853-1.173h55.147c17.643,0,32,14.357,32,32v64
	c0,17.643-14.357,32-32,32h-10.667c-17.643,0-32,14.357-32,32v106.667c0,17.643,14.357,32,32,32h10.667c17.643,0,32,14.357,32,32v64
	C181.333,434.328,166.976,448.685,149.333,448.685z M96.747,427.352h52.587c5.888,0,10.667-4.789,10.667-10.667v-64
	c0-5.877-4.779-10.667-10.667-10.667h-10.667c-29.408,0-53.333-23.925-53.333-53.333V182.018c0-29.408,23.925-53.333,53.333-53.333
	h10.667c5.888,0,10.667-4.789,10.667-10.667v-64c0-5.877-4.779-10.667-10.667-10.667H96.747L73.664,55.149
	c-32.277,16.491-52.331,49.248-52.331,85.493v189.429c0,36.245,20.053,69.003,52.331,85.493L96.747,427.352z"/>
<circle cx="128" cy="384.685" r="10.667"/>
<circle cx="85.333" cy="374.018" r="10.667"/>
<circle cx="128" cy="86.018" r="10.667"/>
<circle cx="85.333" cy="96.685" r="10.667"/>
<g>
</g>
<g>
</g>
<g>
</g>
<g>
</g>
<g>
</g>
<g>
</g>
<g>
</g>
<g>
</g>
<g>
</g>
<g>
</g>
<g>
</g>
<g>
</g>
<g>
</g>
<g>
</g>
<g>
</g>
</svg>
