<?xml version="1.0" encoding="iso-8859-1"?>
<!-- Generator: Adobe Illustrator 19.0.0, SVG Export Plug-In . SVG Version: 6.00 Build 0)  -->
<svg version="1.1" id="Layer_1" xmlns="http://www.w3.org/2000/svg" xmlns:xlink="http://www.w3.org/1999/xlink" x="0px" y="0px"
	 viewBox="0 0 469.333 469.333" style="enable-background:new 0 0 469.333 469.333;" xml:space="preserve">
<path id="SVGCleanerId_0" style="fill:#F5B945;" d="M394.667,266.667H32c-11.787,0-21.333-9.547-21.333-21.333V32
	c0-11.787,9.547-21.333,21.333-21.333h362.667C406.453,10.667,416,20.213,416,32v213.333
	C416,257.12,406.453,266.667,394.667,266.667z"/>
<g>
	<path id="SVGCleanerId_0_1_" style="fill:#F5B945;" d="M394.667,266.667H32c-11.787,0-21.333-9.547-21.333-21.333V32
		c0-11.787,9.547-21.333,21.333-21.333h362.667C406.453,10.667,416,20.213,416,32v213.333
		C416,257.12,406.453,266.667,394.667,266.667z"/>
</g>
<path d="M394.667,277.333H32c-17.643,0-32-14.357-32-32V32C0,14.357,14.357,0,32,0h362.667c17.643,0,32,14.357,32,32v213.333
	C426.667,262.976,412.309,277.333,394.667,277.333z M32,21.333c-5.877,0-10.667,4.779-10.667,10.667v213.333
	C21.333,251.221,26.123,256,32,256h362.667c5.877,0,10.667-4.779,10.667-10.667V32c0-5.888-4.789-10.667-10.667-10.667H32z"/>
<path d="M394.667,0H32C14.357,0,0,14.357,0,32v213.333c0,17.643,14.357,32,32,32h362.667c17.643,0,32-14.357,32-32V32
	C426.667,14.357,412.309,0,394.667,0z M32,21.333h362.667c5.877,0,10.667,4.779,10.667,10.667v42.667h-384V32
	C21.333,26.112,26.123,21.333,32,21.333z M394.667,256H32c-5.877,0-10.667-4.779-10.667-10.667V128h384v117.333
	C405.333,251.221,400.544,256,394.667,256z"/>
<path d="M373.333,170.667h-64c-5.888,0-10.667-4.768-10.667-10.667c0-5.899,4.779-10.667,10.667-10.667h64
	c5.888,0,10.667,4.768,10.667,10.667C384,165.899,379.221,170.667,373.333,170.667z"/>
<path d="M266.667,170.667H224c-5.888,0-10.667-4.768-10.667-10.667c0-5.899,4.779-10.667,10.667-10.667h42.667
	c5.888,0,10.667,4.768,10.667,10.667C277.333,165.899,272.555,170.667,266.667,170.667z"/>
<path style="fill:#3AADD9;" d="M437.333,458.667H74.667c-11.787,0-21.333-9.547-21.333-21.333V224
	c0-11.787,9.547-21.333,21.333-21.333h362.667c11.787,0,21.333,9.547,21.333,21.333v213.333
	C458.667,449.12,449.12,458.667,437.333,458.667z"/>
<path d="M437.333,469.333H74.667c-17.643,0-32-14.357-32-32V224c0-17.643,14.357-32,32-32h362.667c17.643,0,32,14.357,32,32v213.333
	C469.333,454.976,454.976,469.333,437.333,469.333z M74.667,213.333C68.789,213.333,64,218.112,64,224v213.333
	C64,443.221,68.789,448,74.667,448h362.667c5.877,0,10.667-4.779,10.667-10.667V224c0-5.888-4.789-10.667-10.667-10.667H74.667z"/>
<path id="SVGCleanerId_1" d="M256,426.667c-52.928,0-96-43.061-96-96s43.072-96,96-96s96,43.061,96,96S308.928,426.667,256,426.667z
	 M256,256c-41.173,0-74.667,33.504-74.667,74.667s33.493,74.667,74.667,74.667s74.667-33.504,74.667-74.667S297.173,256,256,256z"/>
<circle style="fill:#B0DEF0;" cx="256" cy="330.667" r="85.333"/>
<g>
	<path id="SVGCleanerId_1_1_" d="M256,426.667c-52.928,0-96-43.061-96-96s43.072-96,96-96s96,43.061,96,96
		S308.928,426.667,256,426.667z M256,256c-41.173,0-74.667,33.504-74.667,74.667s33.493,74.667,74.667,74.667
		s74.667-33.504,74.667-74.667S297.173,256,256,256z"/>
</g>
<circle cx="96" cy="330.667" r="10.667"/>
<circle cx="138.667" cy="330.667" r="10.667"/>
<circle cx="373.333" cy="330.667" r="10.667"/>
<circle cx="416" cy="330.667" r="10.667"/>
<path d="M263.616,320h-21.333v-9.141h32c5.888,0,10.667-4.768,10.667-10.667c0-5.899-4.779-10.667-10.667-10.667h-7.616V288
	c0-5.899-4.779-10.667-10.667-10.667s-10.667,4.768-10.667,10.667v1.525h-3.051c-11.765,0-21.333,9.568-21.333,21.333V320
	c0,11.765,9.568,21.333,21.333,21.333h21.333v9.141h-32c-5.888,0-10.667,4.768-10.667,10.667s4.779,10.667,10.667,10.667h7.616
	v1.525c0,5.899,4.779,10.667,10.667,10.667s10.667-4.768,10.667-10.667v-1.525h3.051c11.765,0,21.333-9.568,21.333-21.333v-9.141
	C284.949,329.568,275.381,320,263.616,320z"/>
<g>
</g>
<g>
</g>
<g>
</g>
<g>
</g>
<g>
</g>
<g>
</g>
<g>
</g>
<g>
</g>
<g>
</g>
<g>
</g>
<g>
</g>
<g>
</g>
<g>
</g>
<g>
</g>
<g>
</g>
</svg>
